<?xml version="1.0" encoding="iso-8859-1"?>
<!-- Generator: Adobe Illustrator 19.0.0, SVG Export Plug-In . SVG Version: 6.00 Build 0)  -->
<svg version="1.1" id="Capa_1" xmlns="http://www.w3.org/2000/svg" xmlns:xlink="http://www.w3.org/1999/xlink" x="0px" y="0px"
	 viewBox="0 0 512 512" style="enable-background:new 0 0 512 512;" xml:space="preserve">
<path style="fill:#737A7D;" d="M85.304,287.992C71.688,261.632,64,231.712,64,200C64,93.96,149.96,8,256,8s192,85.96,192,192
	c0,31.72-7.688,61.64-21.312,88.008"/>
<g style="opacity:0.5;">
	<path style="fill:#565C5E;" d="M109.304,288C95.688,261.632,88,231.712,88,200C88,97.992,167.56,14.608,268,8.408
		C264.024,8.168,260.032,8,256,8C149.96,8,64,93.96,64,200c0,31.712,7.688,61.632,21.304,80l341.384,8l0,0H109.304z"/>
</g>
<path style="fill:#A0B2BA;" d="M177.64,280.024C156.88,259.696,144,231.352,144,200c0-61.856,50.144-112,112-112s112,50.144,112,112
	c0,30.52-12.208,58.184-32,78.384"/>
<circle style="fill:#FD3238;" cx="256" cy="200" r="40"/>
<circle cx="256" cy="200" r="16"/>
<g>
	<polyline style="fill:#FCB641;" points="224,96 240,160 272,160 288,96 	"/>
	<polyline style="fill:#FCB641;" points="360,232 296,216 296,184 360,168 	"/>
	<polyline style="fill:#FCB641;" points="152,232 216,216 216,184 152,168 	"/>
	<polyline style="fill:#FCB641;" points="232,280 240,240 272,240 280,280 	"/>
</g>
<rect x="168" y="192" width="16" height="16"/>
<rect x="248" y="112" width="16" height="16"/>
<rect x="328" y="192" width="16" height="16"/>
<path style="fill:#50595D;" d="M408,504H104c-22.088,0-40-17.912-40-40v-32c0-22.088,17.912-40,40-40h304c22.088,0,40,17.912,40,40
	v32C448,486.088,430.088,504,408,504z"/>
<g style="opacity:0.5;">
	<path style="fill:#414547;" d="M88,464v-32c0-22.088,17.912-40,40-40h-24c-22.088,0-40,17.912-40,40v32c0,22.088,17.912,40,40,40
		h24C105.912,504,88,486.088,88,464z"/>
</g>
<path style="fill:#50595D;" d="M408,392H104c-22.088,0-40-17.912-40-40v-32c0-22.088,17.912-40,40-40h304c22.088,0,40,17.912,40,40
	v32C448,374.088,430.088,392,408,392z"/>
<g style="opacity:0.5;">
	<path style="fill:#414547;" d="M88,352v-32c0-22.088,17.912-40,40-40h-24c-22.088,0-40,17.912-40,40v32c0,22.088,17.912,40,40,40
		h24C105.912,392,88,374.088,88,352z"/>
</g>
<path d="M438.104,282.672C449.808,256.872,456,228.512,456,200C456,89.72,366.28,0,256,0S56,89.72,56,200
	c0,28.512,6.192,56.872,17.896,82.672C62.992,291.472,56,304.928,56,320v32c0,16.688,8.568,31.392,21.52,40
	C64.568,400.608,56,415.312,56,432v32c0,26.472,21.528,48,48,48h304c26.472,0,48-21.528,48-48v-32c0-16.688-8.568-31.392-21.52-40
	c12.96-8.608,21.52-23.312,21.52-40v-32C456,304.928,449.008,291.472,438.104,282.672z M440,342.928l-9.512,4.176l-14.296-6.272
	c-2.056-0.904-4.384-0.888-6.432,0l-14.264,6.264l-14.264-6.264c-2.056-0.896-4.384-0.896-6.44,0l-14.256,6.264l-14.24-6.264
	c-2.056-0.896-4.392-0.904-6.448,0l-14.208,6.256l-14.24-6.264c-2.048-0.896-4.384-0.896-6.44,0l-14.24,6.264l-14.232-6.264
	c-2.056-0.896-4.392-0.896-6.44,0l-14.248,6.264l-14.224-6.264c-2.056-0.904-4.392-0.904-6.448,0l-14.232,6.264l-14.216-6.256
	c-2.048-0.904-4.392-0.904-6.448,0L186,347.096l-14.216-6.256c-2.056-0.904-4.392-0.904-6.448,0l-14.2,6.256l-14.216-6.256
	c-2.056-0.904-4.392-0.904-6.448,0l-14.216,6.256l-14.192-6.256c-2.056-0.904-4.392-0.904-6.456,0l-14.176,6.256L72,342.944v-14.512
	l6.192,2.728c2.056,0.904,4.392,0.904,6.456,0l14.176-6.256l14.192,6.256c2.048,0.904,4.384,0.904,6.448,0l14.224-6.256
	l14.216,6.256c2.056,0.904,4.392,0.904,6.448,0l14.2-6.256l14.216,6.256c2.056,0.904,4.392,0.904,6.448,0l14.232-6.264l14.216,6.256
	c2.056,0.904,4.392,0.904,6.448,0l14.232-6.264l14.224,6.256c2.056,0.904,4.392,0.904,6.44,0l14.248-6.264l14.232,6.264
	c2.056,0.896,4.392,0.896,6.448,0l14.24-6.264l14.248,6.264c2.048,0.896,4.392,0.904,6.448,0l14.208-6.256l14.232,6.264
	c2.056,0.896,4.384,0.896,6.44,0l14.264-6.264l14.264,6.264c2.056,0.896,4.384,0.896,6.44,0l14.272-6.264l14.296,6.272
	c1.024,0.448,2.12,0.672,3.216,0.672s2.184-0.224,3.216-0.672l6.28-2.752V342.928z M430.488,315.104l-14.296-6.272
	c-2.056-0.896-4.384-0.896-6.432,0l-14.264,6.264l-14.264-6.264c-2.056-0.896-4.384-0.896-6.44,0l-14.256,6.264l-14.24-6.264
	c-2.056-0.896-4.392-0.904-6.448,0l-14.208,6.256l-14.24-6.264c-2.048-0.896-4.384-0.896-6.44,0l-14.24,6.264l-14.232-6.264
	c-2.056-0.896-4.392-0.896-6.44,0l-14.248,6.264l-14.224-6.264c-2.056-0.904-4.392-0.904-6.448,0l-14.232,6.264l-14.216-6.256
	c-2.048-0.904-4.392-0.904-6.448,0L186,315.096l-14.216-6.256c-2.056-0.904-4.392-0.904-6.448,0l-14.2,6.256l-14.216-6.256
	c-2.056-0.904-4.392-0.904-6.448,0l-14.216,6.256l-14.192-6.256c-2.056-0.904-4.392-0.904-6.456,0l-14.176,6.256l-8.128-3.584
	C77.032,298,89.312,288,104,288h304c14.68,0,26.96,9.992,30.712,23.496L430.488,315.104z M286.56,272l-6.152-30.744
	c6.888-4.088,12.656-9.84,16.768-16.712l55.48,13.872c-4.912,12.36-12.216,23.752-21.672,33.592H286.56V272z M256,168
	c17.648,0,32,14.352,32,32s-14.352,32-32,32s-32-14.352-32-32S238.352,168,256,168z M265.44,248l4.8,24h-28.48l4.8-24H265.44z
	 M360,200c0,7.872-0.968,15.584-2.664,23.088L304,209.752v-19.504l53.328-13.328C359.024,184.352,360,192.056,360,200z
	 M297.176,175.456c-4.088-6.832-9.808-12.552-16.632-16.632l13.848-55.392C320.88,114,342,135.12,352.568,161.608L297.176,175.456z
	 M265.752,152h-19.504L232.92,98.672C240.352,96.976,248.056,96,256,96s15.648,0.976,23.088,2.672L265.752,152z M217.608,103.432
	l13.848,55.392c-6.832,4.088-12.552,9.808-16.632,16.632l-55.392-13.848C170,135.12,191.12,114,217.608,103.432z M152,200
	c0-7.944,0.976-15.648,2.672-23.088L208,190.248v19.504l-53.352,13.336C152.96,215.6,152,207.88,152,200z M214.824,224.544
	c4.112,6.872,9.88,12.624,16.768,16.712L225.44,272h-44.344c-9.488-9.856-16.824-21.224-21.736-33.592L214.824,224.544z M72,200
	C72,98.544,154.544,16,256,16s184,82.544,184,184c0,26.184-5.344,51.312-15.864,74.848C419.08,273.04,413.664,272,408,272h-56.136
	C367.448,251.32,376,226.304,376,200c0-66.168-53.832-120-120-120s-120,53.832-120,120c0,26.392,8.56,51.336,24.152,72H104
	c-5.664,0-11.08,1.04-16.128,2.848C77.344,251.312,72,226.184,72,200z M440,454.928l-9.512,4.176l-14.296-6.272
	c-2.056-0.904-4.384-0.888-6.432,0l-14.264,6.264l-14.264-6.264c-2.056-0.896-4.384-0.896-6.44,0l-14.256,6.264l-14.24-6.264
	c-2.056-0.896-4.392-0.904-6.448,0l-14.208,6.256l-14.24-6.264c-2.048-0.896-4.384-0.896-6.44,0l-14.24,6.264l-14.232-6.264
	c-2.056-0.896-4.392-0.896-6.44,0l-14.248,6.264l-14.224-6.264c-2.056-0.904-4.392-0.904-6.448,0l-14.232,6.264l-14.216-6.256
	c-2.048-0.904-4.392-0.904-6.448,0L186,459.096l-14.216-6.256c-2.056-0.904-4.392-0.904-6.448,0l-14.2,6.256l-14.216-6.256
	c-2.056-0.904-4.392-0.904-6.448,0l-14.216,6.256l-14.192-6.256c-2.056-0.904-4.392-0.904-6.456,0l-14.176,6.256L72,454.944v-14.512
	l6.192,2.728c2.056,0.904,4.392,0.904,6.456,0l14.176-6.256l14.192,6.256c2.048,0.904,4.384,0.904,6.448,0l14.224-6.256
	l14.216,6.256c2.056,0.904,4.392,0.904,6.448,0l14.2-6.256l14.216,6.256c2.056,0.904,4.392,0.904,6.448,0l14.232-6.264l14.216,6.256
	c2.056,0.904,4.392,0.904,6.448,0l14.232-6.264l14.224,6.256c2.056,0.904,4.392,0.904,6.44,0l14.248-6.264l14.232,6.264
	c2.056,0.896,4.392,0.896,6.448,0l14.24-6.264l14.248,6.264c2.048,0.896,4.392,0.904,6.448,0l14.208-6.256l14.232,6.264
	c2.056,0.896,4.384,0.896,6.44,0l14.264-6.264l14.264,6.264c2.056,0.896,4.384,0.896,6.44,0l14.272-6.264l14.296,6.272
	c1.024,0.448,2.12,0.672,3.216,0.672s2.184-0.224,3.216-0.672l6.28-2.752V454.928z M408,496H104
	c-14.472,0-26.584-9.712-30.528-22.92l4.72,2.08c2.056,0.904,4.392,0.904,6.456,0l14.176-6.256l14.192,6.256
	c2.048,0.896,4.384,0.904,6.448,0l14.224-6.256l14.216,6.256c2.056,0.904,4.392,0.904,6.448,0l14.2-6.256l14.216,6.256
	c2.056,0.904,4.392,0.904,6.448,0l14.232-6.264l14.216,6.256c2.056,0.904,4.392,0.904,6.448,0l14.232-6.264l14.224,6.256
	c2.056,0.904,4.392,0.904,6.44,0l14.248-6.264l14.232,6.264c2.056,0.896,4.392,0.896,6.448,0l14.24-6.264l14.248,6.264
	c2.048,0.896,4.392,0.904,6.448,0l14.208-6.256l14.232,6.264c2.056,0.896,4.384,0.896,6.44,0l14.264-6.264l14.264,6.264
	c2.056,0.896,4.384,0.896,6.44,0l14.272-6.264l14.296,6.272c1.024,0.448,2.12,0.672,3.216,0.672s2.184-0.224,3.216-0.672l4.832-2.12
	C434.608,486.272,422.48,496,408,496z M438.712,423.496l-8.216,3.608l-14.296-6.272c-2.056-0.896-4.384-0.896-6.432,0l-14.264,6.264
	l-14.264-6.264c-2.056-0.896-4.384-0.896-6.44,0l-14.256,6.264l-14.24-6.264c-2.056-0.896-4.392-0.904-6.448,0l-14.208,6.256
	l-14.24-6.264c-2.048-0.896-4.384-0.896-6.44,0l-14.24,6.264l-14.232-6.264c-2.056-0.896-4.392-0.896-6.44,0l-14.248,6.264
	l-14.224-6.264c-2.056-0.904-4.392-0.904-6.448,0l-14.232,6.264l-14.216-6.256c-2.048-0.904-4.392-0.904-6.448,0l-14.232,6.264
	l-14.216-6.256c-2.056-0.904-4.392-0.904-6.448,0l-14.2,6.256l-14.216-6.256c-2.056-0.904-4.392-0.904-6.448,0l-14.216,6.256
	l-14.192-6.256c-2.056-0.904-4.392-0.904-6.456,0l-14.176,6.256l-8.128-3.584C77.032,410,89.312,400,104,400h304
	C422.68,400,434.96,409.992,438.712,423.496z M104,384c-14.472,0-26.584-9.712-30.528-22.92l4.72,2.08
	c2.056,0.904,4.392,0.904,6.456,0l14.176-6.256l14.192,6.256c2.048,0.896,4.384,0.904,6.448,0l14.224-6.256l14.216,6.256
	c2.056,0.904,4.392,0.904,6.448,0l14.2-6.256l14.216,6.256c2.056,0.904,4.392,0.904,6.448,0l14.232-6.264l14.216,6.256
	c2.056,0.904,4.392,0.904,6.448,0l14.232-6.264l14.224,6.256c2.056,0.904,4.392,0.904,6.44,0l14.248-6.264l14.232,6.264
	c2.056,0.896,4.392,0.896,6.448,0l14.24-6.264l14.248,6.264c2.048,0.896,4.392,0.904,6.448,0l14.208-6.256l14.232,6.264
	c2.056,0.896,4.384,0.896,6.44,0l14.264-6.264l14.264,6.264c2.056,0.896,4.384,0.896,6.44,0l14.272-6.264l14.296,6.272
	c1.024,0.448,2.12,0.672,3.216,0.672s2.184-0.224,3.216-0.672l4.832-2.12C434.608,374.272,422.48,384,408,384H104z"/>
<g>
</g>
<g>
</g>
<g>
</g>
<g>
</g>
<g>
</g>
<g>
</g>
<g>
</g>
<g>
</g>
<g>
</g>
<g>
</g>
<g>
</g>
<g>
</g>
<g>
</g>
<g>
</g>
<g>
</g>
</svg>
